<svg width="24" height="24" viewBox="0 0 24 24" fill="none" xmlns="http://www.w3.org/2000/svg">
<path d="M9.04995 4.54053C10.9319 4.54053 12.3849 4.94874 13.4089 5.76518C14.4329 6.58161 14.9449 7.73015 14.9449 9.2108C14.9449 10.4285 14.6474 11.494 14.0523 12.4073C13.4711 13.3206 12.6339 14.0264 11.5408 14.5245C10.4614 15.0227 9.20216 15.2718 7.76303 15.2718H4.85708L4.10984 19.0703H0L2.90595 4.54053H9.04995ZM7.94984 12.0337C8.86314 12.0337 9.56195 11.8192 10.0463 11.3903C10.5444 10.9613 10.7935 10.3524 10.7935 9.56366C10.7935 8.96864 10.5929 8.52583 10.1916 8.23523C9.80411 7.9308 9.24368 7.77858 8.51027 7.77858H6.35157L5.50054 12.0337H7.94984Z" fill="#29B550"/>
<path d="M23.6898 4.54053L20.7838 19.0703H16.674L18.9365 7.71631H16.2381L16.8816 4.54053H23.6898Z" fill="#29B550"/>
</svg>
